<?xml version="1.0" encoding="UTF-8" standalone="no"?>
<!-- Created with Inkscape (http://www.inkscape.org/) -->

<svg
   xmlns:dc="http://purl.org/dc/elements/1.1/"
   xmlns:cc="http://creativecommons.org/ns#"
   xmlns:rdf="http://www.w3.org/1999/02/22-rdf-syntax-ns#"
   xmlns:svg="http://www.w3.org/2000/svg"
   xmlns="http://www.w3.org/2000/svg"
   xmlns:sodipodi="http://sodipodi.sourceforge.net/DTD/sodipodi-0.dtd"
   xmlns:inkscape="http://www.inkscape.org/namespaces/inkscape"
   version="1.0"
   width="251"
   height="304.20001"
   id="svg4166"
   inkscape:version="0.91 r13725"
   sodipodi:docname="sorbus_aucuparia.svg">
  <sodipodi:namedview
     pagecolor="#ffffff"
     bordercolor="#666666"
     borderopacity="1"
     objecttolerance="10"
     gridtolerance="10"
     guidetolerance="10"
     inkscape:pageopacity="0"
     inkscape:pageshadow="2"
     inkscape:window-width="1440"
     inkscape:window-height="851"
     id="namedview41"
     showgrid="false"
     inkscape:zoom="1.0971544"
     inkscape:cx="-61.83785"
     inkscape:cy="119.57188"
     inkscape:window-x="1366"
     inkscape:window-y="24"
     inkscape:window-maximized="1"
     inkscape:current-layer="svg4166" />
  <defs
     id="defs4168" />
  <metadata
     id="metadata1880">
    <rdf:RDF>
      <cc:Work
         rdf:about="">
        <dc:title />
        <dc:date>2010-09-06</dc:date>
        <dc:creator>
          <cc:Agent>
            <dc:title>Lokal_Profil</dc:title>
          </cc:Agent>
        </dc:creator>
        <cc:license
           rdf:resource="http://creativecommons.org/licenses/by-sa/2.5/" />
        <dc:rights>
          <cc:Agent>
            <dc:title>cc-by-sa-2.5</dc:title>
          </cc:Agent>
        </dc:rights>
        <dc:format>image/svg+xml</dc:format>
        <dc:type
           rdf:resource="http://purl.org/dc/dcmitype/StillImage" />
      </cc:Work>
      <cc:License
         rdf:about="http://creativecommons.org/licenses/by-sa/2.5/">
        <cc:permits
           rdf:resource="http://web.resource.org/cc/Reproduction" />
        <cc:permits
           rdf:resource="http://web.resource.org/cc/Distribution" />
        <cc:requires
           rdf:resource="http://web.resource.org/cc/Notice" />
        <cc:requires
           rdf:resource="http://web.resource.org/cc/Attribution" />
        <cc:permits
           rdf:resource="http://web.resource.org/cc/DerivativeWorks" />
        <cc:requires
           rdf:resource="http://web.resource.org/cc/ShareAlike" />
      </cc:License>
    </rdf:RDF>
  </metadata>
  <path
     d="M 100.73649,102.83284 C 85.747944,104.73897 75.866092,89.676001 64.947856,81.927617 l 0.780891,-0.685707 c 0,0 -3.303792,-2.221243 -3.549798,-3.486147 l 1.267158,-0.729369 C 60.408337,75.564647 57.656622,71.9788 57.656622,71.9788 c 0,0 1.367263,-0.878247 1.37583,-1.774323 0,0 -3.63845,-0.568429 -5.031459,-4.136458 0,0 1.124117,-0.856397 1.149858,-1.166471 0,0 -3.741435,-1.706292 -4.799793,-4.548947 0,0 1.764857,-0.382383 1.710514,-1.048978 0,0 -3.838691,-2.64883 -4.808389,-6.03104 0,0 1.739133,-0.07231 2.133874,-0.863191 0,0 -3.332419,-3.197916 -3.901634,-7.175689 0,0 1.876413,-0.140608 2.525728,-0.56265 0,0 -2.760318,-2.689738 -2.405641,-7.226149 0,0 1.819214,0.2842 2.251128,-0.426058 0,0 -1.979424,-3.375436 0.532436,-7.130326 3.924157,-1.786944 6.451081,1.117061 6.451081,1.117061 0.732092,-0.292001 0.909549,-2.295492 0.909549,-2.295492 4.108023,0.693738 5.842258,4.266996 5.842258,4.266996 0.527742,-0.591459 1.095574,-2.555522 1.095574,-2.555522 3.394271,1.545216 5.444206,5.847426 5.444206,5.847426 0.794807,-0.233378 1.269652,-2.067463 1.269652,-2.067463 2.77137,1.830854 4.21466,6.542278 4.21466,6.542278 0.578509,0.21527 1.334483,-1.572963 1.334483,-1.572963 2.271801,1.797804 2.901929,6.183133 2.901929,6.183133 0.28118,0.04585 1.306318,-0.948456 1.306318,-0.948456 2.836251,2.325305 2.481297,6.332314 2.481297,6.332314 0.796939,0.202494 1.898903,-1.04544 1.898903,-1.04544 0,0 2.531211,3.775725 3.110567,7.354324 l 0.94626,-1.176532 c 1.064007,0.560552 2.2543,4.601661 2.2543,4.601661 l 0.792691,-0.669254 c 4.295305,13.451154 15.324128,27.526519 10.093688,43.030249 z"
     id="path3427"
     style="fill:#ffffff;fill-opacity:1;stroke:none;stroke-width:2"
     inkscape:connector-curvature="0" />
  <path
     inkscape:connector-curvature="0"
     style="fill:#ffffff;fill-opacity:1;stroke:none;stroke-width:2"
     id="path3467"
     d="m 137.90199,152.98238 c 13.76968,-0.17969 20.55491,-29.91324 27.51787,-41.08212 l -0.91336,-0.26733 c 1.60248,-1.52764 3.13303,-3.7837 3.13303,-3.7837 0,0 -1.22343,0.077 -1.9446,-0.92785 2.18629,-2.03035 4.87289,-7.620669 4.87289,-7.620669 l -2.24088,-0.441463 c 2.50206,-2.15443 5.87353,-9.683879 5.87353,-9.683879 l -2.46904,-0.277196 c 2.26969,-2.102163 4.2608,-5.416437 4.2608,-5.416437 0,0 -0.88387,0.215031 -1.85526,-0.574414 2.82362,-3.022552 2.62663,-5.159602 2.62663,-5.159602 -0.84606,0.137264 -1.67253,-0.172686 -1.67253,-0.172686 2.36469,-3.662048 3.39271,-8.800617 3.39271,-8.800617 -1.23319,0.914042 -2.68683,-0.05747 -2.68683,-0.05747 2.66886,-2.298062 2.99659,-9.295096 2.99659,-9.295096 -0.96514,0.535431 -1.97903,-0.01154 -1.97903,-0.01154 1.23899,-1.658088 2.01673,-4.897888 2.01673,-4.897888 l -0.86011,0.477163 c -0.37553,-0.711301 0.21084,-4.692313 0.21084,-4.692313 l -0.79587,0.190594 c 0,0 -1.46679,-2.688691 1.36307,-4.386335 -1.57927,-1.448526 -3.40281,0.873761 -3.40281,0.873761 l -0.16037,-1.146981 c -1.42987,0.639974 -2.89477,2.775145 -2.89477,2.775145 l -0.48142,-1.153078 c -3.11574,2.239423 -5.08839,5.685601 -5.08839,5.685601 l -1.24297,-1.66676 c -2.35309,2.173967 -3.27992,6.448114 -3.27992,6.448114 l -1.2925,-1.424901 c -2.11447,3.4466 -2.6138,6.452739 -2.6138,6.452739 l -2.18322,-1.44839 c -2.84683,5.998719 -1.902,7.632662 -1.902,7.632662 l -2.10946,-1.492691 c -1.17879,4.562432 -1.38115,7.165047 -1.38115,7.165047 l -1.59987,-1.076877 -1.8864,8.030479 -1.62914,-1.199491 -2.90059,10.156644 -1.38442,-0.523353 c -0.98211,4.836507 -0.6855,8.281487 -0.6855,8.281487 l -0.99842,-0.72098 c -2.51859,8.524462 -3.52237,16.205292 -3.52237,16.205292 l -1.0302,-0.43015 c -0.6887,11.82649 -10.40459,25.21253 2.87846,34.32041 l -1.41397,4.25018 1.35802,0.88694 z" />
  <path
     inkscape:connector-curvature="0"
     style="fill:#ffffff;fill-opacity:1;stroke:none;stroke-width:2"
     id="path3533"
     d="m 166.85222,192.11615 c 14.59804,0.0886 22.29218,-31.28961 29.86113,-42.98682 l -0.96359,-0.30183 c 1.72432,-1.58673 3.38472,-3.94699 3.38472,-3.94699 0,0 -1.29806,0.0569 -2.04548,-1.02288 2.35162,-2.10773 5.29367,-7.97868 5.29367,-7.97868 l -2.36773,-0.51335 c 2.68841,-2.23286 6.38914,-10.14529 6.38914,-10.14529 l -2.61235,-0.34381 c 2.44124,-2.18217 4.60767,-5.65474 4.60767,-5.65474 0,0 -0.94049,0.21006 -1.95675,-0.64644 3.0439,-3.1465 2.87121,-5.41563 2.87121,-5.41563 -0.8991,0.12839 -1.76987,-0.21694 -1.76987,-0.21694 2.56828,-3.83363 3.74471,-9.25935 3.74471,-9.25935 -1.32254,0.94383 -2.8469,-0.11538 -2.8469,-0.11538 2.86764,-2.38171 3.33319,-9.791488 3.33319,-9.791488 -1.03203,0.547964 -2.09745,-0.05214 -2.09745,-0.05214 1.34126,-1.732356 2.22033,-5.150588 2.22033,-5.150588 l -0.91972,0.488342 c -0.38603,-0.761554 0.30276,-4.96929 0.30276,-4.96929 l -0.84679,0.185858 c 0,0 -1.50929,-2.879568 1.51885,-4.621619 -1.64945,-1.567352 -3.62152,0.857174 -3.62152,0.857174 l -0.1506,-1.218977 c -1.52638,0.649354 -3.11514,2.882816 -3.11514,2.882816 l -0.49082,-1.231983 c -3.34032,2.310507 -5.4894,5.923261 -5.4894,5.923261 l -1.28932,-1.79185 c -2.53084,2.256584 -3.58541,6.768137 -3.58541,6.768137 l -1.34592,-1.536611 c -2.29942,3.610326 -2.87946,6.786524 -2.87946,6.786524 l -2.28961,-1.579443 c -3.11878,6.300573 -2.14492,8.051593 -2.14492,8.051593 l -2.21071,-1.62497 c -1.32651,4.81201 -1.58495,7.56651 -1.58495,7.56651 l -1.67758,-1.17384 -2.13511,8.47358 -1.70652,-1.30441 -3.24599,10.70663 -1.45857,-0.58278 c -1.12266,5.1065 -0.86646,8.76397 -0.86646,8.76397 l -1.04608,-0.78442 c -2.81353,8.98435 -4.00721,17.10522 -4.00721,17.10522 l -1.08469,-0.47682 c -0.92972,12.52139 -11.45406,26.51286 2.47131,36.43585 l -1.5705,4.47627 1.42443,0.96762 z" />
  <path
     inkscape:connector-curvature="0"
     style="fill:#ffffff;fill-opacity:1;stroke:none;stroke-width:2"
     id="path3539"
     d="m 113.51774,119.83969 c 13.70299,-1.49358 18.09661,-31.76177 24.1444,-43.552894 l -0.93115,-0.179132 c 1.47483,-1.674816 2.82006,-4.06841 2.82006,-4.06841 0,0 -1.21265,0.193579 -2.01104,-0.738674 2.01642,-2.231344 4.24799,-8.056877 4.24799,-8.056877 l -2.26747,-0.225856 c 2.32112,-2.385101 5.08067,-10.207773 5.08067,-10.207773 l -2.48171,-0.04041 c 2.09379,-2.310846 3.81363,-5.802597 3.81363,-5.802597 0,0 -0.8634,0.298647 -1.89391,-0.395118 2.57238,-3.280621 2.20611,-5.390732 2.20611,-5.390732 -0.83192,0.217538 -1.67991,-0.01234 -1.67991,-0.01234 2.06432,-3.873868 2.67956,-9.091026 2.67956,-9.091026 -1.15576,1.028298 -2.68117,0.19923 -2.68117,0.19923 2.47585,-2.544112 2.2456,-9.545802 2.2456,-9.545802 -0.91886,0.625531 -1.97239,0.17758 -1.97239,0.17758 1.10234,-1.770061 1.61934,-5.071787 1.61934,-5.071787 l -0.81887,0.557468 c -0.4307,-0.672748 -0.16332,-4.69459 -0.16332,-4.69459 l -0.77768,0.265854 c 0,0 -1.67514,-2.538429 1.00888,-4.499781 -1.68851,-1.2922378 -3.32033,1.195305 -3.32033,1.195305 l -0.25099,-1.1273095 c -1.37351,0.7740465 -2.66294,3.0409465 -2.66294,3.0409465 l -0.57135,-1.102805 c -2.92569,2.52836 -4.61663,6.14975 -4.61663,6.14975 l -1.37086,-1.541753 c -2.17116,2.390343 -2.75438,6.736708 -2.75438,6.736708 l -1.40098,-1.296189 c -1.83219,3.635356 -2.09043,6.677723 -2.09043,6.677723 l -2.29015,-1.234446 c -2.3587,6.247674 -1.28746,7.785197 -1.28746,7.785197 l -2.22024,-1.285679 c -0.81129,4.657609 -0.80579,7.269637 -0.80579,7.269637 l -1.67947,-0.920043 -1.24026,8.180009 -1.71838,-1.039394 -2.08143,10.394913 -1.42079,-0.389189 c -0.59355,4.911865 -0.024,8.315419 -0.024,8.315419 l -1.05197,-0.622912 c -1.83075,8.732471 -2.21957,16.479903 -2.21957,16.479903 l -1.06051,-0.330167 c 0.25491,11.847235 -8.358917,26.109907 5.59826,33.915007 l -1.07041,4.369 1.42342,0.75391 z" />
  <path
     inkscape:connector-curvature="0"
     style="fill:#ffffff;fill-opacity:1;stroke:none;stroke-width:2"
     id="path3437"
     d="m 136.44778,154.23455 c -3.41106,14.61406 -31.39009,14.8148 -42.94231,19.5887 l -0.02144,-1.03531 c -1.733596,1.34493 -4.09639,2.4413 -4.09639,2.4413 0,0 0.357261,-1.28403 -0.363873,-2.28895 -2.317414,1.84763 -7.911029,3.38711 -7.911029,3.38711 l 0.13752,-2.48944 c -2.50205,2.15443 -9.977611,3.96498 -9.977611,3.96498 l 0.337169,-2.69351 c -2.400812,1.91945 -5.811107,3.25613 -5.811107,3.25613 0,0 0.399501,-0.89001 -0.07147,-2.11038 -3.348104,2.2917 -5.197369,1.57737 -5.197369,1.57737 0.321582,-0.86814 0.241759,-1.82103 0.241759,-1.82103 -3.807027,1.6522 -8.60823,1.53298 -8.60823,1.53298 1.102066,-1.09677 0.583498,-2.87345 0.583498,-2.87345 -2.668858,2.29806 -8.953334,0.99457 -8.953334,0.99457 0.702895,-0.90086 0.457263,-2.10917 0.457263,-2.10917 -1.76348,0.92723 -4.821175,0.99 -4.821175,0.99 l 0.626411,-0.80282 c -0.542322,-0.5677 -4.21236,-0.88365 -4.21236,-0.88365 l 0.357006,-0.80213 c 0,0 -2.038766,-2.19617 -4.213014,0.41505 -0.912049,-2.02304 1.57868,-3.41563 1.57868,-3.41563 l -0.979715,-0.44153 c 0.905381,-1.37083 3.145428,-2.42586 3.145428,-2.42586 l -0.909106,-0.78473 c 2.722373,-2.78757 6.245317,-4.07345 6.245317,-4.07345 l -1.185064,-1.71662 c 2.484207,-1.99126 6.494683,-1.96845 6.494683,-1.96845 l -0.958903,-1.71226 c 3.556814,-1.43675 6.341483,-1.25835 6.341483,-1.25835 l -0.769308,-2.66586 c 5.993744,-1.61359 7.220101,-0.22207 7.220101,-0.22207 l -0.826074,-2.59786 c 4.325711,-0.1773 6.682288,0.22192 6.682288,0.22192 l -0.577496,-1.95722 7.569322,-0.11151 -0.679355,-2.01731 9.694949,-0.68894 -0.137338,-1.59717 c 4.522399,0.0968 7.508406,1.22599 7.508406,1.22599 l -0.403806,-1.23297 c 8.156823,-0.66777 15.207547,0.0776 15.207547,0.0776 l -0.13832,-1.19814 c 10.65394,2.05974 24.82311,-5.12081 29.76599,11.1685 l 4.10424,-0.50136 0.46612,1.65492 z" />
  <path
     inkscape:connector-curvature="0"
     style="fill:#ffffff;fill-opacity:1;stroke:none;stroke-width:2"
     id="path3497"
     d="m 164.32692,194.29056 c -3.36868,15.55913 -33.02132,16.33892 -45.18532,21.63307 l -0.0402,-1.09693 c -1.81479,1.46068 -4.30068,2.67064 -4.30068,2.67064 0,0 0.357,-1.36822 -0.42437,-2.41877 -2.4251,2.00534 -8.32798,3.75046 -8.32798,3.75046 l 0.10373,-2.64144 c -2.61563,2.33428 -10.508684,4.40483 -10.508684,4.40483 l 0.311881,-2.86178 c -2.512292,2.08316 -6.104418,3.56908 -6.104418,3.56908 0,0 0.408417,-0.95146 -0.11136,-2.23544 -3.510068,2.49691 -5.482244,1.77724 -5.482244,1.77724 0.326196,-0.92667 0.225482,-1.93508 0.225482,-1.93508 -4.007309,1.82838 -9.098299,1.79933 -9.098299,1.79933 1.149597,-1.18484 0.569939,-3.05751 0.569939,-3.05751 -2.790006,2.4899 -9.473181,1.23562 -9.473181,1.23562 0.729811,-0.96909 0.449045,-2.24483 0.449045,-2.24483 -1.853512,1.01852 -5.093421,1.14703 -5.093421,1.14703 l 0.650391,-0.86363 c -0.58441,-0.59073 -4.479752,-0.85125 -4.479752,-0.85125 l 0.364854,-0.85744 c 0,0 -2.19806,-2.28649 -4.458526,0.5253 -1.000886,-2.12581 1.615613,-3.65234 1.615613,-3.65234 l -1.045797,-0.44814 c 0.936493,-1.47135 3.292986,-2.63501 3.292986,-2.63501 l -0.976964,-0.81334 c 2.838463,-3.00982 6.550847,-4.44417 6.550847,-4.44417 l -1.285085,-1.7955 c 2.599472,-2.16095 6.850712,-2.21805 6.850712,-2.21805 l -1.045303,-1.79546 c 3.745738,-1.59495 6.700324,-1.46229 6.700324,-1.46229 l -0.860445,-2.81005 c 6.325747,-1.83178 7.649113,-0.38171 7.649113,-0.38171 l -0.919468,-2.73682 c 4.581992,-0.27561 7.086553,0.0998 7.086553,0.0998 l -0.645163,-2.06282 8.021125,-0.27159 -0.754146,-2.12446 10.264411,-0.9267 -0.17255,-1.69012 c 4.7951,0.0111 7.97916,1.14731 7.97916,1.14731 l -0.44884,-1.29869 c 8.63445,-0.8731 16.12037,-0.22594 16.12037,-0.22594 l -0.16684,-1.26714 c 11.32731,1.96729 26.22447,-5.93081 31.73874,11.23468 l 4.34178,-0.61459 0.522,1.74467 z" />
  <path
     inkscape:connector-curvature="0"
     style="fill:#ffffff;fill-opacity:1;stroke:none;stroke-width:2"
     id="path3503"
     d="m 112.80507,120.45335 c -4.56087,14.2328 -32.449398,11.76164 -44.337503,15.41449 l 0.061,-1.03341 c -1.834009,1.1743 -4.275042,2.04093 -4.275042,2.04093 0,0 0.458081,-1.24503 -0.180392,-2.31499 -2.455602,1.61937 -8.150426,2.61897 -8.150426,2.61897 l 0.335098,-2.46683 c -2.663953,1.90736 -10.255125,2.99734 -10.255125,2.99734 l 0.550206,-2.65108 c -2.5444,1.68294 -6.048073,2.68897 -6.048073,2.68897 0,0 0.468799,-0.84849 0.09672,-2.10918 -3.517702,1.96334 -5.303098,1.07518 -5.303098,1.07518 0.389426,-0.83413 0.385742,-1.79101 0.385742,-1.79101 -3.923997,1.28245 -8.697445,0.70532 -8.697445,0.70532 1.185137,-0.98738 0.809906,-2.80681 0.809906,-2.80681 -2.841551,2.03452 -8.998398,0.136 -8.998398,0.136 0.771899,-0.83033 0.623341,-2.05749 0.623341,-2.05749 -1.830543,0.75534 -4.8816,0.52595 -4.8816,0.52595 l 0.687926,-0.73995 c -0.495086,-0.61731 -4.126019,-1.28243 -4.126019,-1.28243 l 0.419473,-0.76499 c 0,0 -1.8562698,-2.38246 -4.2300104,0.0111 -0.7476099,-2.10241 1.8444438,-3.25191 1.8444438,-3.25191 l -0.9407662,-0.53337 c 1.0110085,-1.27918 3.3264788,-2.11633 3.3264788,-2.11633 l -0.843318,-0.86844 c 2.933807,-2.51705 6.545662,-3.46171 6.545662,-3.46171 l -1.04397,-1.82323 c 2.633194,-1.74652 6.626594,-1.34092 6.626594,-1.34092 l -0.819018,-1.79729 c 3.657597,-1.09172 6.417476,-0.64815 6.417476,-0.64815 l -0.554272,-2.72915 c 6.099328,-1.03524 7.210299,0.46807 7.210299,0.46807 l -0.61623,-2.66683 c 4.32336,0.23632 6.639201,0.85901 6.639201,0.85901 l -0.419568,-2.0049 7.549393,0.61155 -0.51626,-2.0745 9.712872,0.23927 -0.0098,-1.60421 c 4.497489,0.52814 7.382288,1.93815 7.382288,1.93815 l -0.304179,-1.26683 c 8.178922,0.11351 15.143505,1.52916 15.143505,1.52916 l -0.04244,-1.20678 c 10.449513,3.06903 25.136103,-2.73149 28.764083,13.96773 l 4.12852,-0.10761 0.33266,1.69312 z" />
  <path
     inkscape:connector-curvature="0"
     style="fill:#ffffff;fill-opacity:1;stroke:none;stroke-width:2"
     id="path3509"
     d="m 189.8538,230.83987 c -2.23529,14.88408 -30.09188,17.75521 -41.22029,23.61381 l -0.10377,-1.0293 c -1.61999,1.50533 -3.88655,2.82306 -3.88655,2.82306 0,0 0.25375,-1.31323 -0.54464,-2.24551 -2.16158,2.06188 -7.61142,4.12952 -7.61142,4.12952 l -0.061,-2.49309 c -2.32111,2.38508 -9.62416,4.90245 -9.62416,4.90245 l 0.12157,-2.71549 c -2.23895,2.14136 -5.52992,3.79852 -5.52992,3.79852 0,0 0.32718,-0.92475 -0.2391,-2.0955 -3.15303,2.60261 -5.05209,2.06752 -5.05209,2.06752 0.25128,-0.8955 0.096,-1.83717 0.096,-1.83717 -3.66108,2.00938 -8.4535,2.34894 -8.4535,2.34894 1.01061,-1.19777 0.35265,-2.91818 0.35265,-2.91818 -2.47585,2.54412 -8.840132,1.84557 -8.840132,1.84557 0.628544,-0.96455 0.28772,-2.14481 0.28772,-2.14481 -1.682988,1.09207 -4.724057,1.44651 -4.724057,1.44651 l 0.560147,-0.85956 c -0.585428,-0.51376 -4.266635,-0.47814 -4.266635,-0.47814 l 0.291826,-0.83318 c 0,0 -2.205752,-1.99318 -4.163962,0.81567 -1.069544,-1.92827 1.300905,-3.55332 1.300905,-3.55332 l -1.01103,-0.34665 c 0.792862,-1.45204 2.940445,-2.71691 2.940445,-2.71691 l -0.96819,-0.69496 c 2.490213,-3.03686 5.897441,-4.65418 5.897441,-4.65418 l -1.317142,-1.59699 c 2.316317,-2.22083 6.313344,-2.58097 6.313344,-2.58097 l -1.091494,-1.61422 c 3.428964,-1.77083 6.217234,-1.85895 6.217234,-1.85895 l -0.9785,-2.58227 c 5.84256,-2.17968 7.17496,-0.91051 7.17496,-0.91051 l -1.02963,-2.50913 c 4.29514,-0.58945 6.6745,-0.41677 6.6745,-0.41677 l -0.73102,-1.89464 7.53165,-0.83374 -0.83729,-1.94475 9.60324,-1.61191 -0.26388,-1.57797 c 4.51289,-0.3355 7.57738,0.50453 7.57738,0.50453 l -0.50037,-1.18974 c 8.07265,-1.44396 15.15585,-1.37455 15.15585,-1.37455 l -0.23311,-1.18038 c 10.77728,1.0348 24.3212,-7.47115 30.54135,8.28427 l 4.04874,-0.89124 0.59601,1.60411 z" />
  <path
     inkscape:connector-curvature="0"
     style="fill:#ffffff;fill-opacity:1;stroke:none;stroke-width:45;stroke-miterlimit:4;stroke-dasharray:none"
     id="path3447"
     d="M 233.1839,292.84572 225.47725,281.80615 93.41543,92.631178 l 125.6268,168.979442 19.68625,26.47979 z"
     sodipodi:nodetypes="cccccc" />
  <path
     inkscape:connector-curvature="0"
     style="fill:#ffffff;fill-opacity:1;stroke:none;stroke-width:2"
     id="path3545"
     d="m 193.24711,227.91803 c 13.73158,1.13557 22.85679,-27.83707 30.68192,-38.2987 l -0.88861,-0.35349 c 1.71792,-1.36884 3.42216,-3.4702 3.42216,-3.4702 0,0 -1.22491,-0.04 -1.86338,-1.10997 2.33952,-1.8139 5.46069,-7.12646 5.46069,-7.12646 l -2.19721,-0.65373 c 2.66395,-1.90737 6.62169,-9.08629 6.62169,-9.08629 l -2.43761,-0.51184 c 2.42834,-1.87748 4.67556,-4.98905 4.67556,-4.98905 0,0 -0.8976,0.12986 -1.80247,-0.74935 3.05334,-2.74148 3.02714,-4.88921 3.02714,-4.88921 -0.85374,0.056 -1.65241,-0.33172 -1.65241,-0.33172 2.64706,-3.42236 4.08003,-8.44323 4.08003,-8.44323 -1.30122,0.79284 -2.67203,-0.31373 -2.67203,-0.31373 2.84156,-2.03452 3.72477,-8.97364 3.72477,-8.97364 -1.00409,0.44125 -1.97062,-0.20027 -1.97062,-0.20027 1.36623,-1.53349 2.39877,-4.68671 2.39877,-4.68671 l -0.89481,0.39321 c -0.31754,-0.74446 0.5834,-4.65433 0.5834,-4.65433 l -0.808,0.11386 c 0,0 -1.24727,-2.81849 1.70691,-4.23951 -1.458,-1.59378 -3.45939,0.54558 -3.45939,0.54558 l -0.0683,-1.15793 c -1.47537,0.50103 -3.10457,2.48823 -3.10457,2.48823 l -0.38785,-1.19466 c -3.28205,1.93345 -5.5214,5.17818 -5.5214,5.17818 l -1.10563,-1.77908 c -2.51711,1.94105 -3.78049,6.11045 -3.78049,6.11045 l -1.17422,-1.54297 c -2.38066,3.23162 -3.11728,6.17865 -3.11728,6.17865 l -2.05967,-1.65131 c -3.31328,5.70411 -2.50207,7.42204 -2.50207,7.42204 l -1.98268,-1.68847 c -1.53732,4.43254 -1.94599,7.00593 -1.94599,7.00593 l -1.50811,-1.22552 -2.51817,7.81983 -1.5275,-1.35046 -3.69768,9.84108 -1.33751,-0.65353 c -1.3632,4.72434 -1.34183,8.18453 -1.34183,8.18453 l -0.93725,-0.81356 c -3.18726,8.25158 -4.79836,15.80735 -4.79836,15.80735 l -0.99206,-0.52687 c -1.62706,11.71574 -12.37107,24.12328 0.13676,34.46461 l -1.74676,4.09903 1.28228,1.01323 z" />
</svg>
