<?xml version="1.0" encoding="UTF-8" standalone="no"?>
<!-- Created with Inkscape (http://www.inkscape.org/) -->

<svg
   xmlns:dc="http://purl.org/dc/elements/1.1/"
   xmlns:cc="http://web.resource.org/cc/"
   xmlns:rdf="http://www.w3.org/1999/02/22-rdf-syntax-ns#"
   xmlns:svg="http://www.w3.org/2000/svg"
   xmlns="http://www.w3.org/2000/svg"
   xmlns:xlink="http://www.w3.org/1999/xlink"
   version="1.0"
   width="251"
   height="304.20001"
   id="svg4166">
  <defs
     id="defs4168" />
  <metadata 
     id="metadata1880"><rdf:RDF><cc:Work
         rdf:about=""><dc:title>Heraldic Rowan Tree</dc:title><dc:date>2010-09-06</dc:date><dc:creator><cc:Agent><dc:title>Lokal_Profil</dc:title></cc:Agent></dc:creator><cc:license
         rdf:resource="http://creativecommons.org/licenses/by-sa/2.5/" /><dc:rights><cc:Agent><dc:title>cc-by-sa-2.5</dc:title></cc:Agent></dc:rights><dc:format>image/svg+xml</dc:format><dc:type
         rdf:resource="http://purl.org/dc/dcmitype/StillImage" /></cc:Work><cc:License
         rdf:about="http://creativecommons.org/licenses/by-sa/2.5/"><cc:permits
         rdf:resource="http://web.resource.org/cc/Reproduction" /><cc:permits
         rdf:resource="http://web.resource.org/cc/Distribution" /><cc:requires
         rdf:resource="http://web.resource.org/cc/Notice" /><cc:requires
         rdf:resource="http://web.resource.org/cc/Attribution" /><cc:permits
         rdf:resource="http://web.resource.org/cc/DerivativeWorks" /><cc:requires
         rdf:resource="http://web.resource.org/cc/ShareAlike" /></cc:License></rdf:RDF>
  </metadata>
  <g
     transform="matrix(1.2018195,0,0,1.2018195,-25.351153,-4.887518)"
     id="Rowan-Tree"
     style="fill:#808080;stroke:#000000">
    <path
       d="m 113.41945,144.21017 c -0.50505,-3.53535 0.63272,-7.76541 -0.88243,-9.78561 -1.51515,-2.0202 -4.54545,-2.0202 -7.57576,-1.0101 -3.0303,1.0101 -6.0606,3.0303 -7.57576,5.0505 -1.51514,2.02021 -2.66415,8.54388 -3.16921,9.55398 0,0 -0.87791,-0.0848 -0.87791,-0.0848 0,-1.51516 0.7086,-9.2723 2.22375,-11.2925 1.51516,-2.0202 3.62631,-5.23139 5.5242,-6.22607 3.60456,-1.88915 1.13691,-6.51521 -0.33382,-10.13237 -0.42537,-1.04616 -1.51515,-2.02021 -2.52525,-2.52526 -1.0101,-0.50505 -8.80994,2.69979 -12.76584,2.69979 -0.16836,-1.3468 -0.13499,0.26094 -0.30333,-1.08586 2.71862,0.0814 12.97207,-4.45608 12.27344,-5.34338 -3.31436,-5.66625 -7.24268,-10.88592 -11.28907,-16.022364 -4.04639,-5.136442 -7.15319,-9.94558 -10.93984,-15.278911 l 0.88377,-0.435773 c 4.26395,5.609964 9.11197,9.866638 13.37443,15.409741 4.26247,5.543107 8.42751,11.152267 12.30179,17.026457 2.52525,3.53535 5.55556,7.57576 7.57576,9.59596 2.0202,2.0202 3.0303,2.0202 4.54545,2.0202 1.51515,0 3.53536,0 4.54546,-1.0101 1.0101,-1.0101 1.0101,-3.0303 0,-4.54545 -1.0101,-1.51516 -1.68928,-3.19578 -3.20443,-4.20588 -1.51515,-1.0101 -2.79345,-2.2884 -3.80355,-3.80355 -1.0101,-1.51516 -2.28841,-2.73074 -2.79347,-4.24589 -0.50504,-1.51515 -1.01534,-5.94005 -1.01534,-6.95015 l 0.32346,-1.03843 c 1.47541,5.765 2.06371,8.76041 8.47313,13.17319 2.07996,1.43201 4.72125,2.6975 5.11496,2.10156 0,0 0.16025,-13.03842 1.41956,-26.000002 1.25514,-12.918642 1.96617,-15.992961 2.34251,-26 1.11883,0 0.43189,-0.08136 0.55072,-0.08136 0.11883,0 -0.56839,0.08136 0.55044,0.08136 0.37634,10.007039 1.08737,13.081358 2.34251,26 1.25931,12.961582 1.41956,26.000002 1.41956,26.000002 0.39371,0.59594 3.035,-0.66955 5.11496,-2.10156 6.40942,-4.41278 6.99772,-7.40819 8.47313,-13.17319 l 0.32346,1.03843 c 0,1.0101 -0.5103,5.435 -1.01534,6.95015 -0.50506,1.51515 -1.78337,2.73073 -2.79347,4.24589 -1.0101,1.51515 -2.2884,2.79345 -3.80355,3.80355 -1.51515,1.0101 -2.19433,2.69072 -3.20443,4.20588 -1.0101,1.51515 -1.0101,3.53535 0,4.54545 1.0101,1.0101 3.03031,1.0101 4.54546,1.0101 1.51515,0 2.52525,0 4.54545,-2.0202 2.0202,-2.0202 5.05051,-6.06061 7.57576,-9.59596 3.87428,-5.87419 8.03932,-11.48335 12.30179,-17.026457 4.26246,-5.543103 9.11048,-9.799777 13.37443,-15.409741 l 0.88377,0.435773 c -3.78665,5.333331 -6.89345,10.142469 -10.93984,15.278911 -4.04639,5.136444 -7.97471,10.356114 -11.28907,16.022364 -0.69863,0.8873 9.55482,5.42478 12.27344,5.34338 -0.16834,1.3468 -0.13497,-0.26094 -0.30333,1.08586 -3.9559,0 -11.75574,-3.20484 -12.76584,-2.69979 -1.0101,0.50505 -2.09988,1.4791 -2.52525,2.52526 -1.47073,3.61716 -3.93838,8.24322 -0.33382,10.13237 1.89789,0.99468 4.00904,4.20587 5.5242,6.22607 1.51515,2.0202 2.22375,9.77734 2.22375,11.2925 0,0 -0.87791,0.0848 -0.87791,0.0848 -0.50506,-1.0101 -1.65407,-7.53377 -3.16921,-9.55398 -1.51516,-2.0202 -4.54546,-4.0404 -7.57576,-5.0505 -3.03031,-1.0101 -6.06061,-1.0101 -7.57576,1.0101 -1.51515,2.0202 -0.37724,6.25026 -0.88229,9.78561 -0.50505,3.53535 -1.51516,6.56566 -1.51516,9.0909 0,2.52525 1.01011,4.54546 1.01011,7.07071 0,2.52525 -1.01011,5.55555 -1.01011,8.08081 0,2.52525 1.01011,4.54545 1.01011,7.07071 0,2.52525 -1.01011,5.55555 -1.01011,8.0808 0,2.52525 1.01011,4.54546 1.01011,7.07071 0,2.52525 -1.01011,5.55555 -1.51515,9.09091 -0.50506,3.53535 -0.50506,7.57575 0,11.11111 0.50504,3.53535 1.51515,6.56565 3.53535,9.09091 2.0202,2.52525 5.0505,4.54545 8.08081,4.0404 3.0303,-0.50505 6.0606,-3.53535 9.59596,-3.0303 3.53535,0.50505 7.57575,4.54545 11.61616,5.05051 4.0404,0.50504 8.0808,-2.52526 12.12121,-3.03031 4.0404,-0.50505 8.08081,1.51515 11.11111,1.51515 3.0303,0 5.0505,-2.0202 6.56566,-2.52525 1.51515,-0.50505 2.52525,0.50505 1.51515,2.0202 -1.0101,1.51515 -4.04041,3.53535 -7.07071,4.04041 -3.0303,0.50505 -6.06061,-0.50506 -8.08081,0 -2.0202,0.50505 -3.0303,2.52525 -4.54545,3.0303 -1.51515,0.50505 -3.53536,-0.50505 -4.0404,0 -0.50506,0.50505 0.50504,2.52525 2.0202,3.53535 1.51515,1.0101 3.53535,1.0101 4.54545,1.51516 1.0101,0.50504 1.0101,1.51514 0,2.0202 -1.0101,0.50505 -3.0303,0.50505 -4.54545,1.51515 -1.51516,1.0101 -2.52526,3.0303 -3.53536,3.53535 -1.0101,0.50505 -2.0202,-0.50505 -2.0202,-1.51515 0,-1.0101 1.0101,-2.0202 1.0101,-3.53535 0,-1.51516 -1.0101,-3.53536 -2.0202,-4.54546 -1.0101,-1.0101 -2.0202,-1.0101 -4.0404,-1.51515 -2.02021,-0.50505 -5.05051,-1.51515 -6.06061,-1.51515 -1.0101,0 0,1.0101 0.50505,3.0303 0.50505,2.0202 0.50505,5.05051 1.0101,6.56566 0.50505,1.51515 1.51515,1.51515 2.52525,2.0202 1.0101,0.50505 2.02021,1.51515 2.02021,2.52525 0,1.0101 -1.01011,2.0202 -2.52525,2.0202 -1.51516,0 -3.53536,-1.0101 -5.05051,-0.50504 -1.51515,0.50504 -2.52525,2.52525 -3.53536,4.0404 -1.0101,1.51515 -2.0202,2.52525 -3.0303,2.0202 -1.0101,-0.50505 -2.0202,-2.52525 -1.0101,-5.0505 1.0101,-2.52526 4.0404,-5.55556 5.05051,-8.08081 1.0101,-2.52526 0,-4.54546 -1.01011,-5.55556 -1.0101,-1.0101 -2.0202,-1.0101 -2.52525,0 -0.50505,1.0101 -0.50505,3.0303 -1.51515,4.0404 -1.0101,1.01011 -3.0303,1.01011 -3.53535,0.50506 -0.50505,-0.50506 0.50505,-1.51516 -1.0101,-2.52526 -1.51516,-1.0101 -5.55556,-2.0202 -7.07071,-1.51515 -1.51515,0.50505 -0.50505,2.52525 1.0101,5.55556 1.51515,3.0303 3.53535,7.0707 3.03031,10.10101 -0.50506,3.0303 -3.53536,5.0505 -4.54546,4.54545 -1.0101,-0.50505 0,-3.53535 0,-5.55555 0,-2.02021 -1.0101,-3.03031 -2.0202,-3.53536 -1.0101,-0.50505 -2.02021,-0.50505 -3.53535,0.50505 -1.51516,1.0101 -3.53536,3.03031 -4.54546,5.05051 -1.0101,2.0202 -1.0101,4.0404 -1.51515,3.53535 -0.50505,-0.50505 -1.51515,-3.53535 -1.51515,-6.0606 0,-2.52526 1.0101,-4.54546 2.52525,-6.06061 1.51515,-1.51515 3.53535,-2.52525 4.0404,-4.0404 0.50505,-1.51516 -0.50505,-3.53536 -2.0202,-5.05051 -1.51515,-1.51515 -4.84148,-3.02995 -6.35663,-3.02995 -1.51515,0 -4.84148,1.5148 -6.35663,3.02995 -1.51515,1.51515 -2.52525,3.53535 -2.0202,5.05051 0.50505,1.51515 2.52525,2.52525 4.0404,4.0404 1.51515,1.51515 2.52525,3.53535 2.52525,6.06061 0,2.52525 -1.0101,5.55555 -1.51515,6.0606 -0.50505,0.50505 -0.50505,-1.51515 -1.51515,-3.53535 -1.0101,-2.0202 -3.0303,-4.04041 -4.54546,-5.05051 -1.51514,-1.0101 -2.52525,-1.0101 -3.53535,-0.50505 -1.0101,0.50505 -2.0202,1.51515 -2.0202,3.53536 0,2.0202 1.0101,5.0505 0,5.55555 -1.0101,0.50505 -4.0404,-1.51515 -4.54546,-4.54545 -0.50504,-3.03031 1.51516,-7.07071 3.03031,-10.10101 1.51515,-3.03031 2.52525,-5.05051 1.0101,-5.55556 -1.51515,-0.50505 -5.55555,0.50505 -7.07071,1.51515 -1.51515,1.0101 -0.50505,2.0202 -1.0101,2.52526 -0.50505,0.50505 -2.52525,0.50505 -3.53535,-0.50506 -1.0101,-1.0101 -1.0101,-3.0303 -1.51515,-4.0404 -0.50505,-1.0101 -1.51515,-1.0101 -2.52525,0 -1.01011,1.0101 -2.02021,3.0303 -1.01011,5.55556 1.01011,2.52525 4.04041,5.55555 5.05051,8.08081 1.0101,2.52525 0,4.54545 -1.0101,5.0505 -1.0101,0.50505 -2.0202,-0.50505 -3.0303,-2.0202 -1.01011,-1.51515 -2.02021,-3.53536 -3.53536,-4.0404 -1.51515,-0.50506 -3.53535,0.50504 -5.05051,0.50504 -1.51514,0 -2.52525,-1.0101 -2.52525,-2.0202 0,-1.0101 1.01011,-2.0202 2.02021,-2.52525 1.0101,-0.50505 2.0202,-0.50505 2.52525,-2.0202 0.50505,-1.51515 0.50505,-4.54546 1.0101,-6.56566 0.50505,-2.0202 1.51515,-3.0303 0.50505,-3.0303 -1.0101,0 -4.0404,1.0101 -6.06061,1.51515 -2.0202,0.50505 -3.0303,0.50505 -4.0404,1.51515 -1.0101,1.0101 -2.0202,3.0303 -2.0202,4.54546 0,1.51515 1.0101,2.52525 1.0101,3.53535 0,1.0101 -1.0101,2.0202 -2.0202,1.51515 -1.0101,-0.50505 -2.0202,-2.52525 -3.53536,-3.53535 -1.51515,-1.0101 -3.53535,-1.0101 -4.54545,-1.51515 -1.0101,-0.50506 -1.0101,-1.51516 0,-2.0202 1.0101,-0.50506 3.0303,-0.50506 4.54545,-1.51516 1.51516,-1.0101 2.52526,-3.0303 2.0202,-3.53535 -0.50504,-0.50505 -2.52525,0.50505 -4.0404,0 -1.51515,-0.50505 -2.52525,-2.52525 -4.54545,-3.0303 -2.0202,-0.50506 -5.05051,0.50505 -8.08081,0 -3.0303,-0.50506 -6.06061,-2.52526 -7.07071,-4.04041 -1.0101,-1.51515 0,-2.52525 1.51515,-2.0202 1.51516,0.50505 3.53536,2.52525 6.56566,2.52525 3.0303,0 7.07071,-2.0202 11.11111,-1.51515 4.04041,0.50505 8.08081,3.53535 12.12121,3.03031 4.04041,-0.50506 8.08081,-4.54546 11.61616,-5.05051 3.53536,-0.50505 6.56566,2.52525 9.59596,3.0303 3.03031,0.50505 6.06061,-1.51515 8.08081,-4.0404 2.0202,-2.52526 3.03031,-5.55556 3.53535,-9.09091 0.50506,-3.53536 0.50506,-7.57576 0,-11.11111 -0.50504,-3.53536 -1.51515,-6.56566 -1.51515,-9.09091 0,-2.52525 1.01011,-4.54546 1.01011,-7.07071 0,-2.52525 -1.01011,-5.55555 -1.01011,-8.0808 0,-2.52526 1.01011,-4.54546 1.01011,-7.07071 0,-2.52526 -1.01011,-5.55556 -1.01011,-8.08081 0,-2.52525 1.01011,-4.54546 1.01011,-7.07071 0,-2.52524 -1.01025,-5.55555 -1.5153,-9.0909 z"
       id="Trunk"
       style="stroke:none" />
    <g
       transform="matrix(-0.0078584,0.0445672,-0.0445672,-0.0078584,211.23523,93.541611)"
       id="Leaf"
       style="fill:#666666;stroke-width:2">
      <g
         transform="translate(0,11.152963)"
         id="Kvist-top-leaf">
        <path
           d="m 747.81745,168.88567 c 65.0739,-39.95245 61.3824,-125.566687 82.698,-187.855182 l -5.0645,-0.04834 c 0,0 6.8022,-18.400041 4.1695,-23.7636 l -7.12379,1.313854 c 7.91229,-14.809546 8.62199,-36.439315 8.62199,-36.439315 0,0 -7.9471,1.086185 -10.53959,-2.141601 0,0 12.8526,-13.443568 8.20759,-30.759346 0,0 -6.9174,0.40512 -7.90509,-0.64058 0,0 10.0136,-17.89841 6.1082,-31.53302 0,0 -8.1132,4.13066 -9.8002,1.53957 0,0 7.7095,-21.62589 1.91089,-36.94291 0,0 -7.12559,5.17637 -10.9541,3.53839 0,0 4.1276,-22.03687 -4.9647,-38.26451 0,0 -7.8667,5.35771 -11.655,5.85545 0,0 3.30241,-18.40195 -11.0606,-33.76919 0,0 -6.4262,6.72179 -10.1725,5.49279 0,0 -1.7621,-18.45025 -22.4761,-24.23251 -20.7141,5.78226 -22.47619,24.23251 -22.47619,24.23251 -3.74631,1.229 -10.1725,-5.49279 -10.1725,-5.49279 -14.36301,15.36724 -11.06061,33.76919 -11.06061,33.76919 -3.7883,-0.49774 -11.65499,-5.85545 -11.65499,-5.85545 -9.09231,16.22764 -4.9647,38.26451 -4.9647,38.26451 -3.8285,1.63798 -10.95411,-3.53839 -10.95411,-3.53839 -5.79859,15.31702 1.9109,36.94291 1.9109,36.94291 -1.687,2.59109 -9.8002,-1.53957 -9.8002,-1.53957 -3.9054,13.63461 6.1082,31.53302 6.1082,31.53302 -0.9877,1.0457 -7.9051,0.64058 -7.9051,0.64058 -4.64499,17.315778 8.2076,30.759346 8.2076,30.759346 -2.5925,3.227786 -10.5396,2.141601 -10.5396,2.141601 0,0 0.7097,21.629769 8.622,36.439315 l -7.1238,-1.313854 c -2.6327,5.363559 4.1695,23.7636 4.1695,23.7636 l -5.06449,0.04834 c 21.3156,62.288495 17.62419,147.902732 82.69809,187.855182 z"
           id="use2874"
           style="stroke:none" />
        <path
           d="m 747.81745,-259.76438 c 0,0 0,428.65005 0,428.65005"
           id="use2883"
           style="fill:none" />
      </g>
      <use
         transform="matrix(-1,0,0,1,1495.6348,0)"
         id="kvist-L-side"
         x="0"
         y="0"
         width="1545"
         height="1020"
         xlink:href="#kvist-R-side" />
      <g
         id="kvist-R-side">
        <g
           transform="translate(-4.3690853,13.388469)"
           id="g2854">
          <path
             d="m 756.86679,465.02814 c 55.29548,42.4111 167.18271,-44.36224 226.77299,-63.15197 l -2.87055,-3.82739 c 10.73699,-0.53685 23.26757,-3.94424 23.26757,-3.94424 0,0 -5.08746,-3.54629 -5.08746,-9.45163 14.49496,-0.53685 41.14446,-12.43903 41.14446,-12.43903 l -7.6548,-8.61163 c 16.1055,0 51.0162,-16.80327 51.0162,-16.80327 l -9.0317,-8.72848 c 15.0318,-0.53685 32.416,-6.34738 32.416,-6.34738 0,0 -4.1305,-1.98315 -5.7411,-7.88849 19.8634,-2.1474 25.1812,-10.52533 25.1812,-10.52533 -3.758,-2.1474 -6.1611,-5.85794 -6.1611,-5.85794 19.8634,-5.90534 38.6245,-21.3538 38.6245,-21.3538 -7.5159,-0.53685 -10.5254,-8.61163 -10.5254,-8.61163 17.1792,0 38.4603,-24.3886 38.4603,-24.3886 -5.3685,-1.0737 -7.8411,-6.23054 -7.8411,-6.23054 9.6633,-2.1474 22.0075,-11.48218 22.0075,-11.48218 l -4.7843,-0.95684 c 0.5368,-3.75795 14.2359,-16.38327 14.2359,-16.38327 l -3.7105,-1.79685 c 0,0 1.8409,-14.35272 17.9464,-11.66847 -2.1474,-10.20014 -16.0327,-7.46849 -16.0327,-7.46849 l 2.6368,-4.66738 c -7.5159,-2.1474 -19.4401,1.02629 -19.4401,1.02629 l 1.3768,-5.69368 c -18.7897,-1.61055 -36.477,4.73683 -36.477,4.73683 l -0.1864,-9.94107 c -15.5686,0.53685 -31.4591,13.16217 -31.4591,13.16217 l -1.0737,-9.21793 c -18.2528,5.90534 -28.8222,15.26216 -28.8222,15.26216 l -4.5506,-12.08847 c -28.453,12.88438 -29.3591,21.7738 -29.3591,21.7738 l -4.1306,-12.01902 c -17.716,12.88439 -25.9518,21.70436 -25.9518,21.70436 l -3.2905,-8.91478 -30.43281,23.2675 -3.05683,-9.45163 -40.53818,27.81803 -4.01368,-6.23052 c -17.71603,14.49493 -26.37175,27.93488 -26.37175,27.93488 l -1.9137,-5.74109 c -34.35836,23.08452 -60.28142,47.84241 -60.28142,47.84241 l -2.87055,-4.78424 c -36.50576,40.80055 -113.37879,59.03351 -86.53632,133.65557 l -17.76011,11.01477 2.87054,7.46849 z"
             id="path2848"
             style="stroke:none" />
          <path
             d="M 771.75636,446.54488 C 938.83692,331.78603 1177.2825,205.28233 1224.5318,204.57918"
             id="use2850"
             style="fill:none" />
        </g>
        <use
           transform="matrix(1.0599379,0.01850129,-0.01850129,1.0599379,-32.804587,190.07794)"
           id="use2862"
           x="0"
           y="0"
           width="1545"
           height="1020"
           xlink:href="#g2854" />
        <use
           transform="matrix(0.9961947,-0.08715574,0.08715574,0.9961947,-41.219879,-129.23075)"
           id="use2864"
           x="0"
           y="0"
           width="1545"
           height="1020"
           xlink:href="#g2854" />
        <use
           transform="matrix(0.9961947,0.08715574,-0.08715574,0.9961947,50.801183,381.49369)"
           id="use2866"
           x="0"
           y="0"
           width="1545"
           height="1020"
           xlink:href="#g2854" />
      </g>
      <path
         d="m 760.93269,977.95178 -13.11529,-857.86216 -13.11529,857.86216 26.23058,0 z"
         id="Kvist-stem"
         style="stroke:none" />
    </g>
    <use
       transform="matrix(-1,0,0,1,251.67366,0)"
       id="Leaf-2"
       x="0"
       y="0"
       width="251"
       height="304.20001"
       xlink:href="#Leaf" />
    <use
       transform="matrix(0.46947204,-0.88294724,0.88294724,0.46947204,-8.7136336,173.97949)"
       id="Leaf-3"
       x="0"
       y="0"
       width="251"
       height="304.20001"
       xlink:href="#Leaf" />
    <use
       transform="matrix(-1,0,0,1,251.67366,0)"
       id="Leaf-4"
       x="0"
       y="0"
       width="251"
       height="304.20001"
       xlink:href="#Leaf-3" />
    <use
       transform="matrix(-0.21133626,-1.1985475,1.1985475,-0.21133626,17.177137,292.02567)"
       id="Leaf-5"
       x="0"
       y="0"
       width="251"
       height="304.20001"
       xlink:href="#Leaf" />
    <g
       transform="matrix(0.43073523,0,0,0.43073523,100.68508,112.21596)"
       id="Berry-twig">
      <path
         d="m 180.65542,92.402981 c -5.52048,-5.333343 -26.38735,1.164871 -26.38735,1.164871 0,0 -11.73283,-8.307137 -21.93168,-12.330536 l -0.64626,3.630977 c 0,0 14.04737,3.246526 17.50936,10.357651 -4.3041,10.479556 -2.14261,16.327816 -2.14261,16.327816 l 1.40278,-0.0515 c 0,0 -2.24635,-8.22154 2.71272,-14.30342 1.77778,3.13451 2.59196,4.13254 2.66929,6.30016 0.0773,2.16762 -0.43391,6.85005 1.39066,16.16001 l 1.9388,0 c 0,0 -2.99916,-9.91744 -1.78099,-15.34255 0,0 3.45457,1.56366 4.55795,6.93048 l 1.59861,-0.63755 c -0.8421,-3.08773 -7.85744,-13.62307 -7.85744,-13.62307 1.49707,-2.058483 8.5806,-2.500198 8.5806,-2.500198 3.36843,3.64913 3.99655,7.151708 3.99655,7.151708 l 1.6327,-0.5186 c 0,0 -0.79857,-3.383633 -3.32489,-7.032763 7.77365,-3.752504 12.72143,7.851503 13.47873,13.963243 l 0.60526,-0.51563 c 0,0 1.62038,-7.31366 -7.51036,-15.148504 0,0 6.59766,-2.071125 9.37121,2.100546 l 0.13636,-2.083141 z"
         id="twig"
         style="stroke:none" />
      <use
         transform="matrix(0.86602541,0.50000001,-0.50000001,0.86602541,68.392047,-65.741784)"
         id="use2938"
         x="0"
         y="0"
         width="200"
         height="239"
         xlink:href="#berry" />
      <g
         transform="matrix(1.0840254,0,0,1.0840254,-15.409803,-10.264649)"
         id="berry"
         style="fill:#e60000">
        <path
           d="m 189.22702,96.855537 a 5.3808632,5.3808632 0 1 1 -10.76172,0 5.3808632,5.3808632 0 1 1 10.76172,0 z"
           transform="matrix(1.042453,0,0,1.042453,-19.996192,17.880494)"
           id="path2912"
           style="stroke-width:0.5" />
        <path
           d="m 174.05414,120.91263 -0.42237,2.02738"
           id="path3538"
           style="fill:none;stroke-width:0.35640264" />
        <path
           d="m 174.59174,122.16701 -1.61703,-0.42165"
           id="use3540"
           style="fill:none;stroke-width:0.35640264" />
      </g>
      <use
         transform="translate(12.330537,-22.688187)"
         id="use2928"
         x="0"
         y="0"
         width="200"
         height="239"
         xlink:href="#berry" />
      <use
         transform="translate(-1.7262751,-14.056811)"
         id="use2930"
         x="0"
         y="0"
         width="200"
         height="239"
         xlink:href="#berry" />
      <use
         transform="matrix(0.96592583,0.25881905,-0.25881905,0.96592583,46.49957,-49.003574)"
         id="use2932"
         x="0"
         y="0"
         width="200"
         height="239"
         xlink:href="#berry" />
      <use
         transform="translate(-8.0035841,-4.4389932)"
         id="use2934"
         x="0"
         y="0"
         width="200"
         height="239"
         xlink:href="#berry" />
      <use
         transform="matrix(0.85716731,0.51503809,-0.51503809,0.85716731,63.16144,-74.390032)"
         id="use2936"
         x="0"
         y="0"
         width="200"
         height="239"
         xlink:href="#berry" />
    </g>
    <use
       transform="matrix(-0.88294759,0.46947157,0.46947157,0.88294759,227.79871,-57.026094)"
       id="Berry-twig-2"
       x="0"
       y="0"
       width="251"
       height="304.20001"
       xlink:href="#Berry-twig" />
    <use
       transform="matrix(-0.26123405,-1.131529,1.131529,-0.26123405,16.311962,323.86495)"
       id="Berry-twig-3"
       x="0"
       y="0"
       width="251"
       height="304.20001"
       xlink:href="#Berry-twig" />
    <use
       transform="matrix(-1,0,0,1,251.67366,0)"
       id="use3440"
       x="0"
       y="0"
       width="251"
       height="304.20001"
       xlink:href="#Berry-twig-3" />
    <use
       transform="matrix(-1,0,0,1,251.67366,0)"
       id="use3442"
       x="0"
       y="0"
       width="251"
       height="304.20001"
       xlink:href="#Berry-twig" />
    <use
       transform="matrix(-1,0,0,1,251.67366,0)"
       id="use3444"
       x="0"
       y="0"
       width="251"
       height="304.20001"
       xlink:href="#Berry-twig-2" />
  </g>
</svg>
